<svg xmlns="http://www.w3.org/2000/svg" height="800" width="1200" viewBox="-194.52 -64 1685.84 384"><path fill="#FFF" d="M0 0h128v128H0z"/><path fill="#333" d="M0 128h128v128H0z"/><path fill="#EEE" d="M128 128h128v128H128z"/><path fill="#39F" d="M128 0h128v128H128zm272.8 77.1c15.9 0 26.5 4.5 31.8 13.6 5.3 9.1 8 22.1 8 39 0 12.3-1.8 22.8-5.3 31.7-6.5 16.2-18 24.3-34.5 24.3h-32.2V77.1zm5.9-28.9h-72v166.4h72c25.3 0 43.9-10.3 56-31 8.9-15.4 13.4-34.1 13.4-56.2 0-8.7-1.1-17.9-3.2-27.5-2.1-9.6-6.1-18.6-11.9-26.9-7.3-10.2-16.7-17.3-28.5-21.1-6.9-2.3-15.5-3.5-25.8-3.7zm142.6 66.6c7.6 0 14 2.2 19.2 6.6 5.1 4.4 8 10.9 8.6 19.4h-55.6c1.2-8 4-14.4 8.6-19 4.5-4.6 10.9-7 19.2-7zm0-26.5c-18.1 0-32.8 5.7-44.2 17.1-11.3 11.4-17 27.7-17 49 0 22.8 6.3 39.2 18.8 49.3 12.6 10.1 27.1 15.1 43.5 15.1 19.9 0 35.4-6 46.5-18 7.1-7.5 11.1-14.9 12-22.2h-33c-1.9 3.6-4.1 6.4-6.6 8.5-4.6 3.8-10.6 5.6-17.9 5.6-6.9 0-12.9-1.5-17.8-4.6-8.1-5-12.4-13.6-12.9-26h90c.2-10.6-.2-18.8-1.1-24.4-1.5-9.6-4.8-18.1-9.8-25.4-5.6-8.3-12.7-14.4-21.3-18.2-8.7-3.9-18.4-5.8-29.2-5.8zm110.8-40.1h-32.3v166.4h32.3zm55.8-1h-32.8v29.7h32.8zm-32.8 167.4h32.8v-123h-32.8zm163.5-78.9c-1.8-17.5-7.7-29.8-17.5-36.7-9.9-6.9-22.6-10.4-38.1-10.4-18.2 0-32.5 5.9-42.9 17.6-10.4 11.7-15.5 28.2-15.5 49.3 0 18.7 4.7 33.9 14.1 45.7 9.4 11.7 24 17.6 43.9 17.6s34.9-7 45-21.1c6.4-8.7 9.9-18 10.7-27.8h-33c-.7 6.5-2.6 11.7-5.8 15.8-3.2 4.1-8.6 6.1-16.1 6.1-10.7 0-17.9-5.1-21.8-15.4-2.1-5.5-3.2-12.7-3.2-21.7 0-9.5 1.1-17 3.2-22.7 4-10.8 11.5-16.1 22.4-16.1 7.6 0 13.3 2.5 16.9 7.5 2.5 3.7 4.1 7.8 4.7 12.4h33zm47.6-88.5h-32.8v29.7h32.8zm-32.7 167.4h32.8v-123h-32.8zm111.9-22.8c-9.4 0-16.7-3.3-21.8-10-5.1-6.7-7.6-16.2-7.6-28.5s2.5-21.8 7.6-28.5c5.1-6.7 12.4-10 21.8-10s16.7 3.3 21.8 10c5.1 6.7 7.6 16.1 7.6 28.5 0 12.3-2.5 21.8-7.6 28.5-5.1 6.7-12.4 10-21.8 10zm63.2-38.5c0-17.7-5.2-33.1-15.6-46.1-10.4-13-26.3-19.5-47.5-19.5s-37.1 6.5-47.5 19.5c-10.4 13-15.6 28.4-15.6 46.1 0 18 5.2 33.5 15.6 46.3 10.4 12.8 26.3 19.2 47.5 19.2s37.1-6.4 47.5-19.2c10.4-12.8 15.6-28.3 15.6-46.3zm17.3-61.7v74.2c0 14.1 1.8 24.7 5.3 32 6.3 13.1 18.6 19.6 36.8 19.6 6.3 0 11.8-.8 16.6-2.5 4.7-1.7 9.6-4.7 14.6-9.3 1.7-1.4 3.1-3.1 4.3-5 1.2-1.9 2-3 2.3-3.4v17.4h31.4v-123h-32.8v66.9c0 7.9-1.1 14.3-3.2 19.1-4.1 8.9-11.6 13.3-22.6 13.3-8.6 0-14.3-3.1-17.3-9.4-1.7-3.5-2.5-8.8-2.5-15.8V91.6zm129.9 83.7c0 12.6 4.6 23.1 13.9 31.2 9.3 8.2 23.6 12.2 43.1 12.2 19.1 0 33.2-3.9 42.3-11.6 9.1-7.7 13.7-17.7 13.7-29.9 0-9.3-3.2-17-9.5-23.1-6.4-6.1-16.1-10.6-28.9-13.7-19.3-4.2-30.5-7.2-33.7-8.9-3.2-1.7-4.8-4.3-4.8-8 0-2.9 1.5-5.5 4.5-7.7s8-3.3 15.1-3.3c8.6 0 14.6 2.2 18.2 6.5 1.9 2.4 3.1 5.7 3.5 9.8h32.3c-1.4-15.1-7-25.6-16.8-31.8-9.7-6.1-22.3-9.2-37.8-9.2-16.3 0-28.9 4.1-37.9 12.2-9 8.2-13.5 17.9-13.5 29.3 0 9.6 2.9 17 8.6 22.1 5.7 5.2 15.6 9.5 29.7 13 19.5 4.6 30.8 7.8 33.8 9.7 3 1.9 4.5 4.6 4.5 8.2 0 3.8-1.9 6.6-5.6 8.5-3.8 1.9-8.8 2.8-15.2 2.8-10.9 0-18.3-2.1-22.3-6.4-2.3-2.4-3.8-6.5-4.4-12.2h-32.8z"/></svg>